{"title":"Lavalantula.2015.HDRip.x264-MenaceIISociety","uid":12223151,"size":1293625515,"categoryP":"video","categoryS":"movies","magnet":"?xt=urn:btih:1cf55bac1c003f928ec819a279acbb709ed029d1&amp;dn=Lavalantula.2015.HDRip.x264-MenaceIISociety&amp;tr=udp%3A%2F%2Ftracker.openbittorrent.com%3A80&amp;tr=udp%3A%2F%2Fopen.demonii.com%3A1337&amp;tr=udp%3A%2F%2Ftracker.coppersurfer.tk%3A6969&amp;tr=udp%3A%2F%2Fexodus.desync.com%3A6969","seeders":4,"leechers":0,"uploader":"xxxlavalxxx","files":4,"time":1439399523,"description":" &lt;a href=&quot;http://extraimago.com/image/qLR&quot; rel=&quot;nofollow&quot; target=&quot;_NEW&quot;&gt;http://extraimago.com/image/qLR&lt;/a&gt;\n &lt;a href=&quot;\nhttp://www.imdb.com/title/tt4060576/&quot; rel=&quot;nofollow&quot; target=&quot;_NEW&quot;&gt;\nhttp://www.imdb.com/title/tt4060576/&lt;/a&gt;\n\n\nVolcanic eruptions in Los Angeles unleash a swarm of gigantic, lava-breathing tarantulas.\n\nDirector: Mike Mendez\nWriters: Neil Elman, Ashley O'Neil\nStars: Steve Guttenberg, Nia Peeples, Patrick Renna \nGenres: Horror | Sci-Fi\nCountry: USA\nLanguage: English\n\n\nLavalantula.2015.HDRip.x264-MenaceIISociety\n &lt;a href=&quot;\nhttp://www.imdb.com/title/tt4060576/&quot; rel=&quot;nofollow&quot; target=&quot;_NEW&quot;&gt;\nhttp://www.imdb.com/title/tt4060576/&lt;/a&gt;\nSource: 720p.HDTV [THANKS]\n\nGeneral\nComplete name: Lavalantula.2015.HDRip.x264-MenaceIISociety.mp4\nFormat: MPEG-4\nFormat profile: Base Media\nCodec ID: isom\nFile size: 1.17 GiB\nDuration: 1h 19mn\nOverall bit rate mode: Variable\nOverall bit rate: 2 104 Kbps\nEncoded date: UTC 2015-08-12 08:45:31\nTagged date: UTC 2015-08-12 08:45:31\n\nVideo\nID: 1\nFormat: AVC\nFormat/Info: Advanced Video Codec\nFormat profile: &lt;a class=&quot;__cf_email__&quot; href=&quot;/cdn-cgi/l/email-protection&quot; data-cfemail=&quot;a1e9c8c6c9e1ed958f90&quot;&gt;[email&amp;#160;protected]&lt;/a&gt;&lt;script data-cfhash='f9e31' type=&quot;text/javascript&quot;&gt;\n/* &lt;![CDATA[ */!function(){try{var t=&quot;currentScript&quot;in document?document.currentScript:function(){for(var t=document.getElementsByTagName(&quot;script&quot;),e=t.length;e--;)if(t[e].getAttribute(&quot;data-cfhash&quot;))return t[e]}();if(t&amp;&amp;t.previousSibling){var e,r,n,i,c=t.previousSibling,a=c.getAttribute(&quot;data-cfemail&quot;);if(a){for(e=&quot;&quot;,r=parseInt(a.substr(0,2),16),n=2;a.length-n;n+=2)i=parseInt(a.substr(n,2),16)^r,e+=String.fromCharCode(i);e=document.createTextNode(e),c.parentNode.replaceChild(e,c)}t.parentNode.removeChild(t);}}catch(u){}}()/* ]]&gt; */&lt;/script&gt;\nFormat settings, CABAC: Yes\nFormat settings, ReFrames: 3 frames\nCodec ID: avc1\nCodec ID/Info: Advanced Video Coding\nDuration: 1h 19mn\nBit rate mode: Variable\nBit rate: 1 664 Kbps\nMaximum bit rate: 40.0 Mbps\nWidth: 720 pixels\nHeight: 400 pixels\nDisplay aspect ratio: 16:9\nFrame rate mode: Constant\nFrame rate: 29.970 fps\nColor space: YUV\nChroma subsampling: 4:2:0\nBit depth: 8 bits\nScan type: Progressive\nBits/(Pixel*Frame): 0.193\nStream size: 951 MiB (79%)\nWriting library: x264 core 148 r2579 73ae2d1\n\nAudio\nID: 2\nFormat: AAC\nFormat/Info: Advanced Audio Codec\nFormat profile: LC\nCodec ID: 40\nDuration: 1h 19mn\nBit rate mode: Variable\nBit rate: 436 Kbps\nMaximum bit rate: 505 Kbps\nChannel(s): 6 channels\nChannel positions: Front: L C R, Side: L R, LFE\nSampling rate: 48.0 KHz\nCompression mode: Lossy\nStream size: 249 MiB (21%)\nLanguage: English\nEncoded date: UTC 2015-08-12 07:36:14\nTagged date: UTC 2015-08-12 08:47:30 \n\n &lt;a href=&quot;\nhttp://extraimago.com/image/qLm&quot; rel=&quot;nofollow&quot; target=&quot;_NEW&quot;&gt;\nhttp://extraimago.com/image/qLm&lt;/a&gt; &lt;a href=&quot;\nhttp://extraimago.com/image/qLi&quot; rel=&quot;nofollow&quot; target=&quot;_NEW&quot;&gt;\nhttp://extraimago.com/image/qLi&lt;/a&gt; &lt;a href=&quot;\nhttp://extraimago.com/image/qLl&quot; rel=&quot;nofollow&quot; target=&quot;_NEW&quot;&gt;\nhttp://extraimago.com/image/qLl&lt;/a&gt; &lt;a href=&quot;\nhttp://extraimago.com/image/qLI&quot; rel=&quot;nofollow&quot; target=&quot;_NEW&quot;&gt;\nhttp://extraimago.com/image/qLI&lt;/a&gt; &lt;a href=&quot;\nhttp://extraimago.com/image/qLd&quot; rel=&quot;nofollow&quot; target=&quot;_NEW&quot;&gt;\nhttp://extraimago.com/image/qLd&lt;/a&gt; &lt;a href=&quot;\nhttp://extraimago.com/image/qLh&quot; rel=&quot;nofollow&quot; target=&quot;_NEW&quot;&gt;\nhttp://extraimago.com/image/qLh&lt;/a&gt;","torrent":{"xt":"urn:btih:1cf55bac1c003f928ec819a279acbb709ed029d1","amp;dn":"Lavalantula.2015.HDRip.x264-MenaceIISociety","amp;tr":["udp%3A%2F%2Ftracker.openbittorrent.com%3A80","udp%3A%2F%2Fopen.demonii.com%3A1337","udp%3A%2F%2Ftracker.coppersurfer.tk%3A6969","udp%3A%2F%2Fexodus.desync.com%3A6969"],"infoHash":"1cf55bac1c003f928ec819a279acbb709ed029d1","infoHashBuffer":{"type":"Buffer","data":[28,245,91,172,28,0,63,146,142,200,25,162,121,172,187,112,158,208,41,209]},"announce":[],"urlList":[]}}